<svg xmlns="http://www.w3.org/2000/svg" viewBox="0 0 9 10"><path d="M3.25,2.22223a.25073.25073,0,0,0-.25.25V9.75a.25073.25073,0,0,0,.25.25h6.5A.25073.25073,0,0,0,10,9.75V2.47223a.25073.25073,0,0,0-.25-.25ZM9,8.63885a.25073.25073,0,0,1-.25.25H4.25a.25073.25073,0,0,1-.25-.25V3.58331a.25073.25073,0,0,1,.25-.25h4.5a.25073.25073,0,0,1,.25.25Z" transform="translate(-1)"/><path d="M7,.25A.25073.25073,0,0,0,6.75,0H1.25A.25073.25073,0,0,0,1,.25v5.5A.25073.25073,0,0,0,1.25,6h.5A.25073.25073,0,0,0,2,5.75V1.25A.25073.25073,0,0,1,2.25,1h4.5A.25073.25073,0,0,0,7,.75Z" transform="translate(-1)"/><path d="M5.84735,5.75235a.09985.09985,0,0,0-.13986.00932L4.54391,6.92525a.09986.09986,0,0,0-.00933.13987l.97711.97711a.09987.09987,0,0,0,.13987-.00933L6.81514,6.86932a.09986.09986,0,0,0,.00932-.13986Zm-.17015,1.978a.09986.09986,0,0,1-.13987.00932l-.7002-.70019a.09987.09987,0,0,1,.00933-.13987l.83539-.83539a.09985.09985,0,0,1,.13986-.00932l.7002.7002a.09986.09986,0,0,1-.00932.13986Z" transform="translate(-1)"/><rect x="5.33967" y="5.94627" width="2.32067" height="0.26108" rx="0.0923" transform="translate(-3.39314 6.37605) rotate(-45)"/><path d="M8.4561,5.22836a.09987.09987,0,0,0,.00933-.13987l-.97711-.97711a.09986.09986,0,0,0-.13987.00933L6.18487,5.28429a.09986.09986,0,0,0-.00933.13986l.23868.23868a.09986.09986,0,0,0,.13987-.00933l.0149-.0149a.09985.09985,0,0,0,.00933-.13986l-.10023-.10023a.09986.09986,0,0,1,.00933-.13986l.83539-.83539a.09985.09985,0,0,1,.13986-.00932l.7002.70019a.09986.09986,0,0,1-.00932.13987l-.83539.83539a.09987.09987,0,0,1-.13987.00932l-.10022-.10022a.09986.09986,0,0,0-.13986.00932l-.01491.01491a.09986.09986,0,0,0-.00932.13987l.23867.23867a.09986.09986,0,0,0,.13987-.00932Z" transform="translate(-1)"/></svg>
