<svg xmlns="http://www.w3.org/2000/svg" viewBox="0 0 7 10"><path d="M.25,3a.21115.21115,0,0,0-.21464.24749l.92928,6.505A.29775.29775,0,0,0,1.25,10h4.5a.29775.29775,0,0,0,.28536-.24749l.92928-6.505A.21115.21115,0,0,0,6.75,3ZM2.124,9a.28286.28286,0,0,1-.27487-.24876L1.3989,4.24876A.22224.22224,0,0,1,1.624,4h0a.28287.28287,0,0,1,.27488.24876l.45025,4.50248A.22225.22225,0,0,1,2.124,9ZM3.75,8.75A.25073.25073,0,0,1,3.5,9h0a.25073.25073,0,0,1-.25-.25V4.25A.25073.25073,0,0,1,3.5,4h0a.25073.25073,0,0,1,.25.25Zm1.47855.00124A.28287.28287,0,0,1,4.95367,9h0a.22224.22224,0,0,1-.22512-.24876L5.1788,4.24876A.28286.28286,0,0,1,5.45367,4h0a.22225.22225,0,0,1,.22513.24876Z"/><path d="M5.5,1A.25073.25073,0,0,1,5.25.75V.25A.25073.25073,0,0,0,5,0H2a.25073.25073,0,0,0-.25.25v.5A.25073.25073,0,0,1,1.5,1H.25A.25073.25073,0,0,0,0,1.25v.5A.25073.25073,0,0,0,.25,2h6.5A.25073.25073,0,0,0,7,1.75v-.5A.25073.25073,0,0,0,6.75,1ZM4.66486.75a.25073.25073,0,0,1-.25.25H2.58514a.25073.25073,0,0,1-.25-.25V.63892a.25073.25073,0,0,1,.25-.25H4.41486a.25073.25073,0,0,1,.25.25Z"/></svg>
