<svg xmlns="http://www.w3.org/2000/svg" viewBox="0 0 7.92096 6.4"><path d="M6.49718,9.76966A.4091.4091,0,0,1,6.15,10H.25a.15411.15411,0,0,1-.15282-.23034L1.50282,6.43775A.4091.4091,0,0,1,1.85,6.20741h5.9a.15411.15411,0,0,1,.15282.23034Z" transform="translate(0 -3.6)"/><path d="M.07542,7.86535C.03394,7.99644,0,7.9912,0,7.8537V3.85A.25073.25073,0,0,1,.25,3.6h1.9a.489.489,0,0,1,.37793.21479l.54414.91363A.489.489,0,0,0,3.45,4.94321h3.5a.25073.25073,0,0,1,.25.25v.1321a.25073.25073,0,0,1-.25.25H1.05a.36424.36424,0,0,0-.32542.23835Z" transform="translate(0 -3.6)"/></svg>
