<svg xmlns="http://www.w3.org/2000/svg" viewBox="0 0 10 7.85751"><path d="M5,3.77779C4.40479.93336,1.42859,2.35554,1.42859,2.35554V7.33338A2.77674,2.77674,0,0,1,5,8.83306,2.77674,2.77674,0,0,1,8.57141,7.33338V2.35554S5.59521.93336,5,3.77779Z" transform="translate(0 -2)"/><path d="M1.01529,8.24a.26062.26062,0,0,1-.301-.2809V2.918A.43131.43131,0,0,0,.5,2.85968.55519.55519,0,0,0,0,3.457V9.56186c0,.21308.17857.357.34129.26973A8.15743,8.15743,0,0,1,4,8.83306,2.93413,2.93413,0,0,0,1.01529,8.24Z" transform="translate(0 -2)"/><path d="M8.98471,8.24a.26062.26062,0,0,0,.301-.2809V2.918A.43131.43131,0,0,1,9.5,2.85968.55519.55519,0,0,1,10,3.457V9.56186c0,.21308-.17857.357-.34129.26973A8.15743,8.15743,0,0,0,6,8.83306,2.93413,2.93413,0,0,1,8.98471,8.24Z" transform="translate(0 -2)"/></svg>
