<svg xmlns="http://www.w3.org/2000/svg" viewBox="0 0 7 6"><path d="M4.625,8a.62945.62945,0,0,0-.41463.18814l-.54574.62372a.21342.21342,0,0,1-.32926,0l-.54574-.62372A.62945.62945,0,0,0,2.375,8H.25A.25073.25073,0,0,0,0,8.25v1.5A.25073.25073,0,0,0,.25,10h6.5A.25073.25073,0,0,0,7,9.75V8.25A.25073.25073,0,0,0,6.75,8ZM4.75,9.5a.5.5,0,1,1,.5-.5A.5.5,0,0,1,4.75,9.5ZM6,9.5A.5.5,0,1,1,6.5,9,.5.5,0,0,1,6,9.5Z" transform="translate(0 -4)"/><path d="M1.75,6c-.1375,0-.17045.07955-.07322.17678L3.32322,7.82322a.25074.25074,0,0,0,.35356,0L5.32322,6.17678C5.42045,6.07955,5.3875,6,5.25,6Z" transform="translate(0 -4)"/><rect x="3" width="1" height="3" rx="0.25"/></svg>
