<svg xmlns="http://www.w3.org/2000/svg" viewBox="0 0 2.63202 6.31612"><title>intel</title><ellipse cx="4.57727" cy="2.98903" rx="0.67678" ry="0.5" transform="translate(-3.57107 -0.90786) rotate(-18.00859)"/><path d="M4.20387,4.22571a1.72922,1.72922,0,0,1,1.118.00832c.24505.12481.24131.62791-.00832,1.118L4.40584,7.13418c-.24962.4901-.15125.7927.21861.67247s.57035-.01812.44554.22693a1.76778,1.76778,0,0,1-2.0174.65582c-.245-.12481-.2413-.62791.00832-1.118l.90771-1.78215c.24962-.49009.15125-.7927-.21861-.67246s-.57034.01811-.44553-.22693A1.72917,1.72917,0,0,1,4.20387,4.22571Z" transform="translate(-2.87122 -2.46939)"/></svg>