<svg xmlns="http://www.w3.org/2000/svg" viewBox="0 0 8 8"><path d="M6.49711,1.54529a.25475.25475,0,0,0-.21248.28547l.2968,2.12165c.01905.13617.09984.15592.17954.04387l.24367-.34256a.72683.72683,0,0,0,.11027-.45131l-.11376-.81324a.25474.25474,0,0,1,.21248-.28546l.75577-.11584a.67976.67976,0,0,0,.392-.24159l.24367-.34256c.0797-.112.03371-.18668-.1022-.16585Z" transform="translate(-1 -1)"/><path d="M7.23712,1.68365l-.60358.80494A2.99426,2.99426,0,1,1,5,2l.69708-.92975A3.99338,3.99338,0,0,0,5,1a3.99907,3.99907,0,1,0,2.23712.68365Z" transform="translate(-1 -1)"/></svg>
